<?xml version="1.0" encoding="UTF-8"?>
<!-- Generator: Adobe Illustrator 26.0.3, SVG Export Plug-In . SVG Version: 6.00 Build 0)  -->
<svg xmlns="http://www.w3.org/2000/svg" xmlns:xlink="http://www.w3.org/1999/xlink" version="1.1" id="Layer_1" x="0px" y="0px" viewBox="0 0 600 195" style="enable-background:new 0 0 600 195;" xml:space="preserve">
<style type="text/css">
	.st0{fill:#FFFFFF;}
	.st1{fill:#0f4caa;}
	.st2{fill:#313131;}
</style>
<g>
	<g>
		<rect x="276.06" class="st0" width="97.88" height="43.54"></rect>
		<g>
			<polygon class="st1" points="345.02,0 345.02,30.57 357.9,30.57 357.9,39.12 334.49,39.12 334.49,0 331.34,0 331.34,7.67      323.38,7.67 323.38,39.12 312.85,39.12 312.85,7.67 304.98,7.67 304.98,0 302.03,0 302.03,7.27 288.65,7.27 288.65,14.25      301.14,14.25 301.14,22.51 288.65,22.51 288.65,30.57 302.52,30.57 302.52,39.12 278.12,39.12 278.12,0 265.34,0 265.34,104.67      600,195 600,0    "></polygon>
		</g>
		<g>
			<path class="st0" d="M294.16,77.06c-1.97,2.16-4.72,3.44-7.77,3.44c-2.85,0-5.51-1.08-7.57-3.05c-2.75-2.75-2.75-5.7-2.75-11.89     c0-6.29,0-9.14,2.75-11.89c1.97-1.97,4.62-3.05,7.57-3.05c3.93,0,6.2,1.38,8.85,4.03l-2.07,2.06c-2.07-2.06-3.64-3.34-6.69-3.34     c-1.97,0-3.84,0.79-5.12,2.06c-1.87,1.87-2.07,3.93-2.07,10.03c0,6.19,0.2,8.16,2.07,10.12c1.28,1.28,3.15,2.06,5.12,2.06     c2.16,0,4.23-0.88,5.51-2.56c1.18-1.38,1.57-3.15,1.57-5.41v-2.16h-7.18v-2.75h10.33v4.72     C296.72,72.83,295.93,75.09,294.16,77.06z"></path>
			<path class="st0" d="M303.9,80.2V50.72h3.15v26.64h15.05v2.85H303.9z"></path>
			<path class="st0" d="M343.54,77.35c-1.97,1.97-4.62,3.05-7.57,3.05c-2.95,0-5.51-1.08-7.57-3.05c-2.75-2.75-2.75-5.7-2.75-11.89     c0-6.29,0-9.14,2.75-11.89c1.97-1.97,4.62-3.05,7.57-3.05c2.95,0,5.51,1.08,7.57,3.05c2.75,2.75,2.75,5.7,2.75,11.89     C346.3,71.75,346.3,74.6,343.54,77.35z M341.08,55.43c-1.28-1.28-3.15-2.06-5.12-2.06s-3.84,0.79-5.12,2.06     c-1.87,1.87-2.07,3.93-2.07,10.03c0,6.19,0.2,8.16,2.07,10.03c1.28,1.28,3.15,2.06,5.12,2.06s3.84-0.79,5.12-2.06     c1.87-1.87,2.07-3.93,2.07-10.03C343.15,59.27,342.95,57.3,341.08,55.43z"></path>
			<path class="st0" d="M365.18,80.2h-11.51V50.72h11.12c5.12,0,8.66,2.95,8.66,7.86c0,3.15-1.87,5.5-4.33,6.49     c2.85,1.08,4.82,3.44,4.82,6.98C373.94,77.35,370.4,80.2,365.18,80.2z M364.59,53.57h-7.77v10.22h7.67c3.25,0,5.8-1.57,5.8-5.11     C370.4,55.14,367.84,53.57,364.59,53.57z M364.89,66.54h-8.07v10.81h8.07c3.64,0,5.9-2.06,5.9-5.41     C370.79,68.7,368.53,66.54,364.89,66.54z"></path>
			<path class="st0" d="M398.53,80.2l-2.36-6.68h-12.89l-2.36,6.68h-3.34l10.82-29.49h2.66l10.82,29.49H398.53z M389.88,55.24     l-5.61,15.53h11.02L389.88,55.24z"></path>
			<path class="st0" d="M406.7,80.2V50.72h3.15v26.64h15.05v2.85H406.7z"></path>
		</g>
	</g>
	<g>
		<path class="st2" d="M80.89,130.74H64.62l-13.08-39.9l-13.08,39.9H22.3L0,49.69h20.82L31.4,92.21l13.08-42.51h14.11l13.08,42.51    l10.58-42.51h20.82L80.89,130.74z"></path>
		<path class="st2" d="M154.73,130.74l-14.34-30.24h-6.71v30.24h-19.91V49.69h32.08c8.65,0,15.42,2.56,20.31,7.67    c4.89,5.11,7.34,11.24,7.34,18.36c0,5.08-1.29,9.42-3.87,13.02c-2.58,3.6-5.69,6.31-9.33,8.13l17.52,33.87H154.73z M144.95,67.54    h-11.26v16.37h11.26c2.65,0,4.76-0.81,6.31-2.44c1.55-1.63,2.33-3.54,2.33-5.74c0-2.2-0.78-4.11-2.33-5.74    C149.7,68.35,147.6,67.54,144.95,67.54z"></path>
		<path class="st2" d="M214.57,131.31c-6.75,0-12.57-0.77-17.46-2.33c-4.89-1.55-9.31-4.34-13.25-8.36l12.74-12.73    c1.97,1.97,4.57,3.41,7.79,4.32c3.22,0.91,6.66,1.36,10.3,1.36c7.74,0,11.61-2.42,11.61-7.28c0-2.05-0.4-3.48-1.2-4.32    c-0.8-0.83-1.61-1.44-2.45-1.82c-0.84-0.38-1.93-0.64-3.3-0.8L209.56,98c-7.21-1.06-12.65-3.47-16.33-7.22    c-3.68-3.75-5.52-9.15-5.52-16.2c0-7.5,2.65-13.64,7.96-18.42c5.31-4.77,12.52-7.16,21.62-7.16c5.99,0,11.17,0.74,15.53,2.22    c4.36,1.48,8.29,3.96,11.77,7.45l-12.51,12.5c-1.52-1.51-3.38-2.69-5.58-3.52c-2.2-0.83-4.97-1.25-8.3-1.25h-1.48    c-3.26,0-5.71,0.74-7.34,2.22c-1.63,1.48-2.45,3.24-2.45,5.29c0,0.83,0.13,1.53,0.4,2.1c0.26,0.57,0.68,1.14,1.25,1.7    c0.57,0.57,1.27,1.06,2.11,1.48c0.83,0.42,1.97,0.7,3.41,0.85l9.78,1.36c7.13,0.99,12.1,2.86,14.9,5.63    c2.81,2.77,4.68,5.61,5.63,8.53c0.95,2.92,1.42,6.35,1.42,10.29c0,7.88-2.98,14.09-8.93,18.64    C230.97,129.04,223.51,131.31,214.57,131.31z"></path>
	</g>
</g>
</svg>
